<mxfile host="app.diagrams.net" modified="2024-05-28T20:05:46.523Z" agent="Mozilla/5.0 (Windows NT 10.0; Win64; x64) AppleWebKit/537.36 (KHTML, like Gecko) Chrome/123.0.0.0 Safari/537.36 OPR/109.0.0.0 (Edition Yx GX)" etag="dfVosW7zBx4mn9xkK-lL" version="24.4.9" type="device">
  <diagram name="Страница — 1" id="n-zo0C2-hAkFef_Y_Tny">
    <mxGraphModel dx="1161" dy="638" grid="1" gridSize="10" guides="1" tooltips="1" connect="1" arrows="1" fold="1" page="1" pageScale="1" pageWidth="827" pageHeight="1169" math="0" shadow="0">
      <root>
        <mxCell id="0" />
        <mxCell id="1" parent="0" />
        <mxCell id="gYKAfcqMfV5z7PiSkJFO-8" style="edgeStyle=orthogonalEdgeStyle;rounded=0;orthogonalLoop=1;jettySize=auto;html=1;" edge="1" parent="1" source="gYKAfcqMfV5z7PiSkJFO-1" target="gYKAfcqMfV5z7PiSkJFO-3">
          <mxGeometry relative="1" as="geometry" />
        </mxCell>
        <mxCell id="gYKAfcqMfV5z7PiSkJFO-1" value="Начало" style="rounded=1;whiteSpace=wrap;html=1;" vertex="1" parent="1">
          <mxGeometry x="330" y="340" width="120" height="40" as="geometry" />
        </mxCell>
        <mxCell id="gYKAfcqMfV5z7PiSkJFO-2" value="Конец" style="rounded=1;whiteSpace=wrap;html=1;" vertex="1" parent="1">
          <mxGeometry x="330" y="830" width="120" height="40" as="geometry" />
        </mxCell>
        <mxCell id="gYKAfcqMfV5z7PiSkJFO-9" style="edgeStyle=orthogonalEdgeStyle;rounded=0;orthogonalLoop=1;jettySize=auto;html=1;" edge="1" parent="1" source="gYKAfcqMfV5z7PiSkJFO-3" target="gYKAfcqMfV5z7PiSkJFO-4">
          <mxGeometry relative="1" as="geometry" />
        </mxCell>
        <mxCell id="gYKAfcqMfV5z7PiSkJFO-3" value="Зайти на главную страницу" style="rounded=0;whiteSpace=wrap;html=1;" vertex="1" parent="1">
          <mxGeometry x="330" y="410" width="120" height="60" as="geometry" />
        </mxCell>
        <mxCell id="gYKAfcqMfV5z7PiSkJFO-10" style="edgeStyle=orthogonalEdgeStyle;rounded=0;orthogonalLoop=1;jettySize=auto;html=1;" edge="1" parent="1" source="gYKAfcqMfV5z7PiSkJFO-4" target="gYKAfcqMfV5z7PiSkJFO-5">
          <mxGeometry relative="1" as="geometry" />
        </mxCell>
        <mxCell id="gYKAfcqMfV5z7PiSkJFO-4" value="Корректно заполнить заявку" style="rounded=0;whiteSpace=wrap;html=1;" vertex="1" parent="1">
          <mxGeometry x="330" y="490" width="120" height="60" as="geometry" />
        </mxCell>
        <mxCell id="gYKAfcqMfV5z7PiSkJFO-11" style="edgeStyle=orthogonalEdgeStyle;rounded=0;orthogonalLoop=1;jettySize=auto;html=1;" edge="1" parent="1" source="gYKAfcqMfV5z7PiSkJFO-5" target="gYKAfcqMfV5z7PiSkJFO-6">
          <mxGeometry relative="1" as="geometry" />
        </mxCell>
        <mxCell id="gYKAfcqMfV5z7PiSkJFO-5" value="Отправить заявку" style="rounded=0;whiteSpace=wrap;html=1;" vertex="1" parent="1">
          <mxGeometry x="330" y="580" width="120" height="60" as="geometry" />
        </mxCell>
        <mxCell id="gYKAfcqMfV5z7PiSkJFO-12" style="edgeStyle=orthogonalEdgeStyle;rounded=0;orthogonalLoop=1;jettySize=auto;html=1;" edge="1" parent="1" source="gYKAfcqMfV5z7PiSkJFO-6" target="gYKAfcqMfV5z7PiSkJFO-7">
          <mxGeometry relative="1" as="geometry" />
        </mxCell>
        <mxCell id="gYKAfcqMfV5z7PiSkJFO-6" value="Дождаться обработки заявки" style="rounded=0;whiteSpace=wrap;html=1;" vertex="1" parent="1">
          <mxGeometry x="330" y="660" width="120" height="60" as="geometry" />
        </mxCell>
        <mxCell id="gYKAfcqMfV5z7PiSkJFO-13" style="edgeStyle=orthogonalEdgeStyle;rounded=0;orthogonalLoop=1;jettySize=auto;html=1;entryX=0.5;entryY=0;entryDx=0;entryDy=0;" edge="1" parent="1" source="gYKAfcqMfV5z7PiSkJFO-7" target="gYKAfcqMfV5z7PiSkJFO-2">
          <mxGeometry relative="1" as="geometry" />
        </mxCell>
        <mxCell id="gYKAfcqMfV5z7PiSkJFO-7" value="Получить номер отправления" style="rounded=0;whiteSpace=wrap;html=1;" vertex="1" parent="1">
          <mxGeometry x="330" y="740" width="120" height="60" as="geometry" />
        </mxCell>
      </root>
    </mxGraphModel>
  </diagram>
</mxfile>
